/* XPM */
static char *xpm_[] = {
/* columns rows colors chars-per-pixel */
"128 128 84 1",
"  c #1A1208",
". c #2A2218",
"X c #352511",
"o c #382B1D",
"O c #473C2D",
"+ c #483C2D",
"@ c #554531",
"# c #624E35",
"$ c #655541",
"% c #756551",
"& c #847360",
"* c #9E8669",
"= c #948470",
"- c #A18D74",
"; c #D39666",
": c #D2976D",
"> c #D49A6D",
", c #D39772",
"< c #D49A75",
"1 c #D59E7A",
"2 c #D7A076",
"3 c #D9A275",
"4 c #D6A07E",
"5 c #D9A57B",
"6 c #DBA87F",
"7 c #A49480",
"8 c #B4A390",
"9 c #D7A281",
"0 c #D9A585",
"q c #DCAB83",
"w c #D9A788",
"e c #DBAA8B",
"r c #DEB086",
"t c #DFB18C",
"y c #DCAE91",
"u c #C4B49F",
"i c #DEB195",
"p c #DFB499",
"a c #E0B48E",
"s c #E1B692",
"d c #E2B995",
"f c #E0B79C",
"g c #E2BA9E",
"h c #C4B4A0",
"j c #E2BCA3",
"k c #E4BFA8",
"l c #E5C09F",
"z c #D4C3B0",
"x c #D6CABC",
"c c #E6C3A3",
"v c #E8C6A7",
"b c #E5C2AC",
"n c #E8C7A9",
"m c #EACBAD",
"M c #E6C6B1",
"N c #E7C8B4",
"B c #E9CAB5",
"V c #EACDBB",
"C c #ECD1B6",
"Z c #E4D4BF",
"A c #EDD3BC",
"S c #EFD8BF",
"D c #E4D3C0",
"F c #ECD3C3",
"G c #EFD8C0",
"H c #EED7C8",
"J c #E7DBCC",
"K c #EFD9CB",
"L c #F1DBC3",
"P c #F1DDCD",
"I c #F1DDD2",
"U c #F3E0CD",
"Y c #E9E1D7",
"T c #E9E1D8",
"R c #F4E4D4",
"E c #F6E8D7",
"W c #F7EADC",
"Q c #F7ECE0",
"! c #F8EEE3",
"~ c #F9F0E5",
"^ c #FAF2E8",
"/ c #FCF8F3",
"( c #FFFFFF",
") c None",
/* pixels */
"))))))))))))))))))))))))))))))))))))))))))))))))))))))))))))))))))))))))))))))))))))))))))))))))))))))))))))))))))))))))))))))))",
"))))))))))))))))))))))))))))))))))))))))))))))))))))))))))))))))))))))))))))))))))))))))))))))))))))))))))))))))))))))))))))))))",
"))))))))))))))))))))))))))))))))))))))))))))))))))))))))))))))))))))))))))))))))))))))))))))))))))))))))))))))))))))))))))))))))",
")))))))))))))))))))))))))))))))))))))))))))))))))))))))))))))))zRz%)))))))))))))))))))))))))))))))))))))))))))))))))))))))))))))",
"))))))))))))))))))))))))))))))))))))))))))))))))))))))))))))))/((((&))))))))))))))))))))))))))))))))))))))))))))))))))))))))))))",
")))))))))))))))))))))))))))))))))))))))))))))))))))))))))))))z(((((E))))))))))))))))))))))))))))))))))))))))))))))))))))))))))))",
")))))))))))))))))))))))))))))))))))))))))))))))))))))))))))))R((((((X)))))))))))))))))))))))))))))))))))))))))))))))))))))))))))",
")))))))))))))))))))))))))))))))))))))))))))))))))))))))))))))L((((((J$))))))))))))))))))))))))))))))))))))))))))))))))))))))))))",
"))))))))))))))))))))))))))))))))))))))))))))))))))))))))))))z((((((U((z)))))))))))))))))))))))))))))))))))))))))))))))))))))))))",
"))))))))))))))))))))))))))))))))))))))))))))))))))))))))))8/(Rc^(/C:tW(/7)))))))))))))))))))))))))))))))))))))))))))))))))))))))",
"))))))))))))))))))))))))))))))))))))))))))))))))))))))))&^(/d>,e(r>,,:c/(^%)))))))))))))))))))))))))))))))))))))))))))))))))))))",
")))))))))))))))))))))))))))))))))))))))))))))))))))))))J((m<,,,t(t,,,,,<C((x))))))))))))))))))))))))))))))))))))))))))))))))))))",
")))))))))))))))))))))))))))))))))))))))))))))))))))))u((R5<,,<<t(t,,,,,,,0R((8))))))))))))))))))))))))))))))))))))))))))))))))))",
")))))))))))))))))))))))))))))))))))))))))))))))))))7/(^a><<<<<<t(t,,<,<<,,,s^(/=))))))))))))))))))))))))))))))))))))))))))))))))",
")))))))))))))))))))))))))))))))))))))))))))))))))%Y(/v><<<<<<<<t(t<<<<<<1<,<>m/(J%))))))))))))))))))))))))))))))))))))))))))))))",
"))))))))))))))))))))))))))))))))))))))))))))))))x((S1<<<<<<<<<<t(t1<1<<<<11<<<5S((z)))))))))))))))))))))))))))))))))))))))))))))",
"))))))))))))))))))))))))))))))))))))))))))))))8/(Re<<<11<<11<<<a(t111<1<<<<<1<<<tY(/8)))))))))))))))))))))))))))))))))))))))))))",
"))))))))))))))))))))))))))))))))))))))))))))=^(^d<<<1<11111111<a(t1111111<1<1<1<<<l/(^&)))))))))))))))))))))))))))))))))))))))))",
")))))))))))))))))))))))))))))))))))))))))))J(/m1<<<111111111111s(i4411111111111<<<<2m((J@)))))))))))))))))))))))))))))))))))))))",
")))))))))))))))))))))))))))))))))))))))))z((P611111111111911991a(t441111444411114<<<<5R((u))))))))))))))))))))))))))))))))))))))",
")))))))))))))))))))))))))))))))))))))))7/(Wt<111111111919199101a(s9551914444444111111<<t^(/=))))))))))))))))))))))))))))))))))))",
")))))))))))))))))))))))))))))))))))))%^(/g<11111111991199999150d(s999999594444441111111<<c/(T%))))))))))))))))))))))))))))))))))",
"))))))))))))))))))))))))))))))))))))J((V31111111119919999999400a(s9999999999444499111111<<3S((x)))))))))))))))))))))))))))))))))",
"))))))))))))))))))))))))))))))))))8((R6<11111144999999900099000d(s000000999954949941111111<1qR(/8)))))))))))))))))))))))))))))))",
"))))))))))))))))))))))))))))))))=/(^d<111111119199090009000000wd(d00w00909099999991144411111<<g!(^&)))))))))))))))))))))))))))))",
"))))))))))))))))))))))))))))))%J(/m<11111191999500000000wwwwwwwd(sw0wwwww00w99w9999944441111<<11m/(J$)))))))))))))))))))))))))))",
")))))))))))))))))))))))))))))z((L1<111<1999999400000ww0w00e0qwed(dwweewewwww9www090999445111111115P((z))))))))))))))))))))))))))",
")))))))))))))))))))))))))))8/(Rt<<111119195900000000w0wwweeeeeed(deeeeeeeeqwwwww0000095491111111<<<tW(/7))))))))))))))))))))))))",
")))))))))))))))))))))))))&^(/g<1<11111199990000wwwwweweeeeeeeytd(deeeeeeeeeeeeww00w00004991111111<<<>c/(^%))))))))))))))))))))))",
"))))))))))))))))))))))))J((m1<<1111991999090ww0wweeeeeeyeyyyyytd(dieyyeeeeeeeeeewwww00909995991111<<<<1C((J)))))))))))))))))))))",
"))))))))))))))))))))))u((P3<<<111111011900wwwwwwweeeeeyyyyyyyyyg(gteieeeteeeeeeewwwwww000999911111<<1,,,5R((8)))))))))))))))))))",
"))))))))))))))))))))-/(^t><1<<111191905090wwwqeeeyeeyyyyyyyyyytg(giiiiiiiyiyyeyeeeewww0w099991991111<11<,,s^(/=)))))))))))))))))",
"))))))))))))%D(W8)%Y(/c><<<<11119199990000wweeeeyyyyyyyyyiiyiiig(liiiyiiiiyiyeeeyeeeeeee00w99954111111<<<,,>m/(J*DRz))))))))))))",
")))))))))))%(((((U((S<,<<<<1111199990000wweeeeeyyyyyyyyyiiifiifg(lppppppiiiiiiiyyeyeeeeewww9w9999111111<<<<,,5A(((((/)))))))))))",
")))))))))))z((((((R0<,,,<<<11111999900wwwweeeeiiyyyyyiipiififfdg(lppppppiiiiiiiiyyyeeeeewww999999111111<<<<,,,:^(((((z))))))))))",
")))))))))))R((((((;,>,<<<<111119999000wwweeeyeeiyypyfifffifffdfg(lpppppppippiiiiyyyyeeeeewwwww959941111<<<<,,,;((((((R))))))))))",
")))))))))))z((((((r:,<<<<111991999000weeeeeeieiiypppppppfffffffj(lpppppppppppppiiyyyyeeeeeqww09099911111<<<,,,3((((((Z))))))))))",
")))))))))))$(((((/(R5,<<<111199990000eeeeeieiiiiyppppffpfjpfjjfj(lfjjpjfppjppppppiiiieyeeeewwww9999911111<<,1m/((((((%))))))))))",
"))))))))))))%J(/g3R((m21111191999000eeeeyieiiiiipppffffjjfjjjjjj(cjjjjjjppjppppppppiiyieieeewwww9091911111<d^(^sn/(^&)))))))))))",
")))))))))))))%(m,,>s^(/g1111999000weweeeeiiiiipppffffjjjjjjjjjjj(cjjjjjjjjjjjjppppppiiiyieeewwww099999911qR((n1,,m(%))))))))))))",
")))))))))))))%(m,,<<>m/(Wa4495000weeeeeyiiiiippppfjfjjjjjjjkkkkc(cjjjjjjjjpjpppjppppppyiyeeeeewe00095945C((P5,,,,m(%))))))))))))",
")))))))))))))%(m,,,<1<4G((S095000weeeeyeyiiipppppfjjjjjjkkkkkkkv(cbbbbkjkjkjjjjpjppppppiiyyeyeew000044n/(Wt<<<<,,m(%))))))))))))",
")))))))))))))%(m,,<<<111aR(/B50wweeeyyeiiiippppjfjjjjjjkkkkkkbbv(cbbbbbbkkkkkjjpjppfpppiiyyeyeewww09s^(/v<111<<<,m(%))))))))))))",
")))))))))))))%(m,<<<<11144l/(^g0weeeyyiiiiippppjjjjjjjkkbkbbbbbn(nbbbbbbbkkkkkjjjfjpppppiiiyyeeeewqP((C54111<<<<,m(%))))))))))))",
")))))))))))))%(m,<<<11144455m((RteeeeiiippppjpjjjjjkkbbbbbbbMMMn(nMMbbbbbbbbkjkjjjjfppppiiiiiyeeqB((Rt9444111<<<,m(%))))))))))))",
")))))))))))))%(m,,<<111444900qU((AryyiiippppjjjjjkkkbbbbbbMMMMMn(nMNMbMMbbbbbbkjjjjfjppppiiiiyec^(^g509544111<<<,m(%))))))))))))",
")))))))))))))%(m<<<<11444490wwwd^(/meippppppjjjjkkbbbbbbMMMNNNNm(mNNNNMMMMMbbbkkkjjjjfjpppiiidR(/B50000444411<<<<m(%))))))))))))",
")))))))))))))%(m<<<<11444990wwee0m/(!dippjpjjjjjkcbbbbMMNNNNBNNm(mBBNNNNMMMzbbbbbkjjjjjpppptG((Laeee000444411<<<<m(%))))))))))))",
")))))))))))))%(m<<<1111999000wweeetG((UiffgjjjjkbbbbMMNNBBBBVBBN(mBBBBBNNNNNMMkkkkkjjjgfftC/(!feyeeww0099191111<<m(%))))))))))))",
")))))))))))))%(m<<<111199900wweeeyyypE((CfjjjkkkbbbbNNNNBBVVVVBm(mVVVBVVBBNNMMMMbbkjjjjdj^(/meyyyeeww0009991111<<m(%))))))))))))",
")))))))))))))%(m<1<111199900weeeyyyiiic^(^mgjkbbbbMMNNNVBVVVDVFM(BDDVVVBVVNNNMMMbbbkkjdR((Cspyyyyeeew0009991111<<m(%))))))))))))",
")))))))))))))%(m<1111919900weweeyyiiipppC/(RgkbbbbMNNNBVVVVVDFFM(BFDFFVVVVVNNMMMbbbbfS((Rsfpppyytyeeww009999111<<m(%))))))))))))",
")))))))))))))%(m<<1119999000weeeyiiippppfgR((LgbMMNNVNVVVAFFFFFB(BFFFFVFVVVBNNNNMbgB/(^kfgfppppyyeeeew0099911111<N(%))))))))))))",
")))))))))))))%(m<1111999000weeyyyiipppjlgjgc!(/AcNNNVVVAVFFFFFGB(BFFFFFFFFVBVNNNMn!(/Adjjgpdpppyyyyewe009999111<<m(%))))))))))))",
")))))))))))))%(m<111119900wweeeyiipppppjjjkcgB/(^nbVVVVFFFFFHHHC(CGHFFFFFFVVVBVbP((Lgkkkjfffpppyyyeeew00999991111m(%))))))))))))",
")))))))))))))%(m<111919900weeeyyiypppppjjkkbbbjG((EcVVFFFFHFHHKC(CHHHHHFFFFFVMF/(Ecbbkkkjjjfpppyiyyyeee099999111<m(%))))))))))))",
")))))))))))))%(m<1119999900eeeyyyiippjjjjjbbbbMMcE((GmFFFFHHKKKC(CKKKHHHFFFBC^(^VbMMkkkkjjjpfppiyyyeewww099511111m(%))))))))))))",
")))))))))))))%(m<1191999000eeeyyiiippffjjbjbbMMNNMm^(/CNHHHKKKIA(CIPKKHHFFmE((AmNNMbbbkkjjjpfppyiyyyeew0w99991111m(%))))))))))))",
")))))))))))))%(m<111999900eeeyyiiiippjpjjkbbbMNNBBVmG/(!CKKPIIIA(CIIIKKKNP((RnVVNNMMMbkkjjjffpppsiyeeewww9919111<m(%))))))))))))",
")))))))))))))%(m11119990000eeeyyiippppjjjjkbbMNNBVVVFmP((PVIIIRA(AIIIIAL/(!BVAVVVNNMMkkkjjjjjppyyyyyeewww09911111m(%))))))))))))",
")))))))))))))%(m1119999900weeyyyiipppljjkkbbbzNBBVVVFFHBE(/LGIRA(ARRLA^(/SVFFDVVNNNMMkkkkjjjffppsiyyyeew009991111m(%))))))))))))",
")))))))))))))%(m<11119900eweeyyiippppjjjjkbbMMNBVVVFFFHHGS^(^GAE(EGAR((PBHHFFAVVVVNMMMkkjjjjffpiyiyyeeew00999111<m(%))))))))))))",
")))))))))))))%(m111999990weeeyyyipppjjjjkkbbMMNBBVDFFFHHKIGL((/(((//(EBPPHHFFFDVVNNMMkkkjjjjfffiiyyeeee0w00991111m(%))))))))))))",
")))))))))))))%(m<11919990weeeyyyiipppjjjjbbbMMNNVVDFFFHHKIIIC^(((((/CPIIPPHFFFFVVVNNMMkkkjjfffffiiyyeeew009991111m(%))))))))))))",
")))))))))))))%(m<42495999wweeyyyyppfpjjjkkkMMNNBVVVFFFHHKIIRRR((((((CRIIKKHFFFFVVNNNbbbbjjjppppppiyeeeeew0595411<m(%))))))))))))",
")))))))))))))%(m<<44499wwwweeyyiiipfffjjkkkbMNNBVVVFFFHKKKIPG/(((((/mYIKKKHHFFAVVBNNNbbbkjjjjpppiiiyyeeww9994441<m(%))))))))))))",
")))))))))))))%(m<444499wqwweeyyiipppfjjjkkbMMbNBVVVFFHHKKICE(//(((((/GFKKKKHFDVVVNNNMbbbkjjgjpppiiyyeeeww99944411m(%))))))))))))",
")))))))))))))%(m<44449999weeeyyiyippffjjkkkkMNNBBVVAFFHKBU((RGL^(^SC/(^AGKHFFFDVVNNMMbbbkjjgppppiiyeeewwww0944411m(%))))))))))))",
")))))))))))))%(m<144499wwweeeyyyppppffjjkkkbMMNNBVVDGFBS/(^CHIRm(LRRAP((RBHFFFVVVNNMbbbkkjjpppppiiyyeeeww9954411<m(%))))))))))))",
")))))))))))))%(m14<449999wweeeyyypppfjjjjkkbbMNNBVVDBB^(/GAIIIIB(LIRIICE(/LBFVVBVNNNbbbkkjjjjpppiiyyeeeww99944111m(%))))))))))))",
")))))))))))))%(m<4444999w9weeeyyypppffjjkkkbbMMNBBVnE((HBKKKPIIN(LIIIKKFC^(^ABVVBNNMbbkkjjjjppppyiyeeewww9444441<m(%))))))))))))",
")))))))))))))%(m<<<445999wweetyyyyppffjjjkkkbmMNNcG((EnHFKKKPIPm(LIIKKKKHCL/(EmBNNNbbbbkjjppppppiyyeeewww99444111m(%))))))))))))",
")))))))))))))%(m<414444900wwteyyypppffjjjkkkbbMbV/(^BVFFFFHKKKKm(LKKHHHHHFFNR((LcNMbbbkkjjjjppiiyyyeeew9999544<11m(%))))))))))))",
")))))))))))))%(m<<111499000weeeyyypppffjjkkkbbnR(/AmVAVFFFFHHKKn(HKHHHHFFFFFNm!(/Ccbbbkjjjjppiiiiyyeewwww999441<<m(%))))))))))))",
")))))))))))))%(m<111449900wweeyyypppppfjjjkkjL((PnNVVVVFFFFFHHHv(HHHHFFFFFVVVBnC/(^ckbkkjpjpppiiiyeetwwww994411<<m(%))))))))))))",
")))))))))))))%(m<114445900wweeeyyyyppppfjjfA/(EvMMNBVVVVFFFFFFFv(LHFFFFDFVVVVBNNcG((Rdkjjjppppiiiyyewwwq999444111m(%))))))))))))",
")))))))))))))%(m<111444409wweeeyyyysiffjdn^(/BkMMMNNNVVVFFFFFFFc(GFFDFFVDVVVBBNNbngE((Spjppppiiiyeeeeww999544411<m(%))))))))))))",
")))))))))))))%(m<<<11449900weeeeyyyipppsE((CfkkbbMMNNBVVVDVVVFFc(GFFFFVVVVVBBNNMbbbjv^(/mijppiiiyeeeewww9944411<<m(%))))))))))))",
")))))))))))))%(m<1114449999weeeeyyysiyA((RdjkckbbMMMNNNVVVVVVDAc(GVVFVVVBBBNNMMMbbbbbpA/(Rcpiiiiyyeeww99994441<<<m(%))))))))))))",
")))))))))))))%(m<<<<144499w9weeeyyyeB/(^gdjjjkkkbbMMMNNNBBVBVVVc(GVVVVVVVBNNMMMbbbjbjgppH((Giiyiyeewww999544111<1m(%))))))))))))",
")))))))))))))%(m<<<11119990wwweeyeg!(/BtppjjjkkkkkMMMMNNNNVVVVVg(AVVVVNBNNNMMkMkkkkjjjjpplE(/Cqeeeeww0009991111<<m(%))))))))))))",
")))))))))))))%(m<<1111199990wwwetP((GtippppjjjkjkkkkMMMMNNNNBBNd(SBNNNNNNMMMMMMkkkjjjjjpppiv/(^leeww0099991111<<,m(%))))))))))))",
")))))))))))))%(m<<<<111449909wwC/(RsyiipppjjjjjjkkkkkMMMMMMMNNNd(SNNNNNMMMMMkkkkkkkjjjppppiitC((Eaww000991111<<<<m(%))))))))))))",
")))))))))))))%(m<<<<<11149995c^(^veetiiipppjppjjkkkkkMkkMMMMMNNf(ANNMMMMMMkkkkkkkkjjjjpppiiiietU((C6009491111<<<<m(%))))))))))))",
")))))))))))))%(m<<<<<444499tR(/CeeeiiiiipppppjjjjjkkkkkbkkMMMMMs(AbMMMbbkkkMkkjjjjjjpppppiiiiieed^(/n44511111<<<,m(%))))))))))))",
")))))))))))))%(m,<<<<<<445G((PrwwweeeeiipppppjpjjjjkkkkkkkMMkkMd(Sbbbbbbkkkkkjjjjjffppppiiieeeeew0n/(Ws44111<<<,,m(%))))))))))))",
")))))))))))))%(m,,<<<<1<c/(Wi9wweeeeeieiiipppppjjjjjkjkkkkkkkkMp(Cbbbbbbkkkkjjjjffppppppiiiieeeww0w6L((P6111<<,,,m(%))))))))))))",
")))))))))))))%(m,<<<<<t^(/n4599wwwweeiieyippppppfffjjjjjkkkkkkkp(Akkkkkkkjjjjjjjjfpppppyiieieewww0009tR((B1111<,,m(%))))))))))))",
")))))))))))))%(m,<,<5R((C244999w9wweeeyyyiiipppppjjjjjjjjkjkkkkt(Abkjjkjjjjjjjfjpppppyyyiyyeeeww0099994d^(^g<<,,,m(%))))))))))))",
")))))))))))))&(n,,2m((R54<4459999wweeeeeyyyiippppppppjfjjjjkjjkt(Cjkjjjjjjjjfjppppppppyyyyyewee0099995445m/(Rq<<,m(%))))))))))))",
"))))))))))))8/((At/(^d<<<44449990wwweeeeeyyyiiippppppjfjpjjjjgjt(Cjjjjjjjjppjpfpppppyyyyyyeee000999941411<5S((A>d/(xO)))))))))))",
")))))))))))&((((((/m:,<<<<44444599wwwweeeyyyyiiipppppppjpppgjpjt(Cggjfjjppjpfpppipiyyyyyeeewew00059944111<11tW(^((((/)))))))))))",
")))))))))))Z((((((>,,<<<<1444444909wwwwweeeyyiiiiiippppppjpjgpjt(Cgfjpfppppppppyiyyyyyyeeewwww0999994111<1<,<:g((((((8))))))))))",
")))))))))))R((((((;,,,<<<11<<44449000wweeeeyeyeyiiiippppppppffpq(Cfffpppppppppppiyyyyyeyewwww0099911111<<<,,,<r((((((Z))))))))))",
")))))))))))h((((((l:,,,<<1<144444940000weweeeyeyyyiiiipippppppdq(Cppppppppppyyyyyyyyeywewww090999111111<<<<<<:r((((((8))))))))))",
"))))))))))))/(((/^(Rt,,<<<<<<444449590w0weeeeeeyyyyyiyiiiippippq(Cpppppyppyyyyyyyyyyewwwww009995911111<<<,,,3R(((((((@))))))))))",
")))))))))))))hRz%Oz((A5<<<<<1111999999000wwweeeeyyyyyyyyiiiiiip6(Ciiiiiiiyiiytyyeeeeewww000099991111<<1<<,<C((J#u/(W%)))))))))))",
")))))))))))))))))))%J(/m><<1<111191999900wwwwqweeeyeyyyyiyyiiii0(Ciiiiiiyyyyeyyeeeeewwww000999911111<<<<>g/(^%))))X)))))))))))))",
")))))))))))))))))))))=/(^s,<<11111119999900wwqweeeeeyyeyyyyyyii6(Ciieyyyyyyeeeeeeeqwwww099991111111<1<<eW(/8 )))))))))))))))))))",
")))))))))))))))))))))))8((R5<<<<1111199999900wwwweeeeeeeeyeyeee6(Cyieeyeeeyeeeeeeww0w009999919111111<5G((zo)))))))))))))))))))))",
"))))))))))))))))))))))))@J((B1<111111915599000wwwqwweeweeeeeeet5(Beeeeeeeeeewwwwwww0w099991111111<<5M/(J$)))))))))))))))))))))))",
"))))))))))))))))))))))))))%^(/v><<1111145999999w0wwwewwewqeeeee5(meeeeeeeeewwwwwww99099591911111<<s^(^=)))))))))))))))))))))))))",
"))))))))))))))))))))))))))))7/(Wa<1111111999999000000wwewweeeee3(Ceeeeewwwww0000000999991911111<qR((8.))))))))))))))))))))))))))",
"))))))))))))))))))))))))))))))z((P9111111919999900000000wwwwwee3(Cwwwwwww0w00000999599191111112C((x@))))))))))))))))))))))))))))",
")))))))))))))))))))))))))))))))$J(/m511111191599499000000wwww003(B000w0w00900909999919111111>c/(T%))))))))))))))))))))))))))))))",
")))))))))))))))))))))))))))))))))&^(^g<111111444599999999099000>(m00w999990999991991111111<t^(/7 )))))))))))))))))))))))))))))))",
")))))))))))))))))))))))))))))))))))8/(Rq1111111144449999999000w3(m009909999999991919111115P((ho)))))))))))))))))))))))))))))))))",
"))))))))))))))))))))))))))))))))))))+x((G1111111444491999995100>(B5999959999111111111111m((J$)))))))))))))))))))))))))))))))))))",
"))))))))))))))))))))))))))))))))))))))%T(/v<1111111111911999990>(B5994449119111111111<g^(^&)))))))))))))))))))))))))))))))))))))",
"))))))))))))))))))))))))))))))))))))))))=/(^t<1<111111111119111<(B144444911111111111tR(/8 ))))))))))))))))))))))))))))))))))))))",
"))))))))))))))))))))))))))))))))))))))))))h((R511<1111111111119>(m11414111111111<<3G((z+))))))))))))))))))))))))))))))))))))))))",
")))))))))))))))))))))))))))))))))))))))))))@J((m3<<111111111111>(m111111<111<11<,m/(T%))))))))))))))))))))))))))))))))))))))))))",
")))))))))))))))))))))))))))))))))))))))))))))&^(/g<<<1<111<1111>(m1111111<<<1<,d^(/= )))))))))))))))))))))))))))))))))))))))))))",
")))))))))))))))))))))))))))))))))))))))))))))))8/(Rt<<<<<<<1<11;(m1<<<<<<<<<<5R((8o)))))))))))))))))))))))))))))))))))))))))))))",
")))))))))))))))))))))))))))))))))))))))))))))))))z((G5<<<<<<<<1;(m<<11<1<<<2C((J@)))))))))))))))))))))))))))))))))))))))))))))))",
"))))))))))))))))))))))))))))))))))))))))))))))))))%J(/m>,,,<<<1;(m<<,,,,,>g/(^%)))))))))))))))))))))))))))))))))))))))))))))))))",
"))))))))))))))))))))))))))))))))))))))))))))))))))))=/(^s,,,<,,;(m,,,,,>tW(/8 ))))))))))))))))))))))))))))))))))))))))))))))))))",
"))))))))))))))))))))))))))))))))))))))))))))))))))))))8((R5,<>,;(m,<,,5P((zo))))))))))))))))))))))))))))))))))))))))))))))))))))",
")))))))))))))))))))))))))))))))))))))))))))))))))))))))@x((C<<,;(n<<1n/(J$))))))))))))))))))))))))))))))))))))))))))))))))))))))",
")))))))))))))))))))))))))))))))))))))))))))))))))))))))))%^(/da^((Ar^(^=))))))))))))))))))))))))))))))))))))))))))))))))))))))))",
")))))))))))))))))))))))))))))))))))))))))))))))))))))))))))7/(((((((/8.)))))))))))))))))))))))))))))))))))))))))))))))))))))))))",
")))))))))))))))))))))))))))))))))))))))))))))))))))))))))))))^((((((#)))))))))))))))))))))))))))))))))))))))))))))))))))))))))))",
")))))))))))))))))))))))))))))))))))))))))))))))))))))))))))))R((((((X)))))))))))))))))))))))))))))))))))))))))))))))))))))))))))",
")))))))))))))))))))))))))))))))))))))))))))))))))))))))))))))u(((((^))))))))))))))))))))))))))))))))))))))))))))))))))))))))))))",
"))))))))))))))))))))))))))))))))))))))))))))))))))))))))))))))/((((-))))))))))))))))))))))))))))))))))))))))))))))))))))))))))))",
")))))))))))))))))))))))))))))))))))))))))))))))))))))))))))))))hRZ&)))))))))))))))))))))))))))))))))))))))))))))))))))))))))))))",
"))))))))))))))))))))))))))))))))))))))))))))))))))))))))))))))))))))))))))))))))))))))))))))))))))))))))))))))))))))))))))))))))",
"))))))))))))))))))))))))))))))))))))))))))))))))))))))))))))))))))))))))))))))))))))))))))))))))))))))))))))))))))))))))))))))))"
};
