/* XPM */
static char * icon_xpm[] = {
"64 64 472 2",
"  	c None",
". 	c #AA8A61",
"+ 	c #BCA282",
"@ 	c #B69975",
"# 	c #FFFFFF",
"$ 	c #F1E4D5",
"% 	c #B1997B",
"& 	c #BB9E79",
"* 	c #C9B398",
"= 	c #F7EBDC",
"- 	c #F2DEC5",
"; 	c #EACAA7",
"> 	c #F4E4D3",
", 	c #E7D5C0",
"' 	c #AE926F",
") 	c #EFD7BF",
"! 	c #D69D72",
"~ 	c #D39666",
"{ 	c #EACAAA",
"] 	c #D39772",
"^ 	c #D3976F",
"/ 	c #E1B793",
"( 	c #D9C6AE",
"_ 	c #E8D5C0",
": 	c #F4E5D3",
"< 	c #DCAB82",
"[ 	c #D39873",
"} 	c #D39974",
"| 	c #D49768",
"1 	c #EACBAD",
"2 	c #D69E76",
"3 	c #C0A88C",
"4 	c #E2B894",
"5 	c #D49972",
"6 	c #D49A75",
"7 	c #D49A76",
"8 	c #D49B76",
"9 	c #D4996A",
"0 	c #EACBAE",
"a 	c #D9A57D",
"b 	c #EFD8BF",
"c 	c #A0825C",
"d 	c #B79E7E",
"e 	c #D7A079",
"f 	c #D49B77",
"g 	c #D49C78",
"h 	c #D59C78",
"i 	c #D59C79",
"j 	c #D59A6C",
"k 	c #EACCAF",
"l 	c #D59D79",
"m 	c #D49C77",
"n 	c #DFB28C",
"o 	c #F7EBDF",
"p 	c #E0CDB6",
"q 	c #A1835C",
"r 	c #F2DECB",
"s 	c #DAA67F",
"t 	c #D59D7A",
"u 	c #D59E7B",
"v 	c #D69E7B",
"w 	c #D69E7C",
"x 	c #D69F7C",
"y 	c #D69C6E",
"z 	c #EACCB0",
"A 	c #D59E7A",
"B 	c #D49A71",
"C 	c #E4BF9D",
"D 	c #FAF2E8",
"E 	c #CAB498",
"F 	c #D8C5AD",
"G 	c #DFB38D",
"H 	c #D59C75",
"I 	c #D69F7D",
"J 	c #D6A07D",
"K 	c #D6A07E",
"L 	c #D7A17F",
"M 	c #D69E70",
"N 	c #EACDB0",
"O 	c #D7A076",
"P 	c #F3EBE1",
"Q 	c #B89E7F",
"R 	c #E5BF9E",
"S 	c #D59B72",
"T 	c #D7A280",
"U 	c #D7A281",
"V 	c #D7A382",
"W 	c #D8A382",
"X 	c #D8A483",
"Y 	c #D7A073",
"Z 	c #EBCEB1",
"` 	c #D8A383",
" .	c #D7A381",
"..	c #DAA67B",
"+.	c #E9DCCC",
"@.	c #B89F80",
"#.	c #ECD2B7",
"$.	c #D7A177",
"%.	c #D7A180",
"&.	c #D8A584",
"*.	c #D9A585",
"=.	c #D9A685",
"-.	c #D9A686",
";.	c #D8A276",
">.	c #EBCEB2",
",.	c #D49B74",
"'.	c #D9A787",
").	c #DAA788",
"!.	c #DAA889",
"~.	c #DAA989",
"{.	c #DAA98A",
"].	c #D9A478",
"^.	c #EBCFB3",
"/.	c #DAA888",
"(.	c #D49A70",
"_.	c #D9A584",
":.	c #DBAA8B",
"<.	c #DBAB8C",
"[.	c #DBAB8D",
"}.	c #DBAC8E",
"|.	c #ECCFB4",
"1.	c #DCAC8E",
"2.	c #DBAC8D",
"3.	c #DAAA8B",
"4.	c #D79F74",
"5.	c #D4996F",
"6.	c #D8A484",
"7.	c #DCAD8F",
"8.	c #DCAE90",
"9.	c #DCAE91",
"0.	c #DDAF92",
"a.	c #DBA87E",
"b.	c #ECD0B5",
"c.	c #DDAE91",
"d.	c #DCAD90",
"e.	c #DAAA8A",
"f.	c #DCAA82",
"g.	c #EFDEC9",
"h.	c #FCF8F3",
"i.	c #D9BD9B",
"j.	c #F0E4D4",
"k.	c #D69E73",
"l.	c #DDB093",
"m.	c #DDB194",
"n.	c #DEB195",
"o.	c #DCAA81",
"p.	c #ECD1B6",
"q.	c #DEB296",
"r.	c #DDB195",
"s.	c #DDB094",
"t.	c #DDAF93",
"u.	c #D39770",
"v.	c #E4BD9B",
"w.	c #EFD7B9",
"x.	c #F5E4D0",
"y.	c #BEA484",
"z.	c #DEB087",
"A.	c #D39872",
"B.	c #DBAA8C",
"C.	c #DEB397",
"D.	c #DFB398",
"E.	c #DFB499",
"F.	c #DFB59A",
"G.	c #DDAD85",
"H.	c #EDD2B7",
"I.	c #D39973",
"J.	c #E6C4A4",
"K.	c #B59874",
"L.	c #E9CAAD",
"M.	c #D3986D",
"N.	c #E0B69B",
"O.	c #E0B79C",
"P.	c #E0B79D",
"Q.	c #E1B89E",
"R.	c #DEAF88",
"S.	c #EDD3B8",
"T.	c #E0B89E",
"U.	c #E0B69C",
"V.	c #D9A786",
"W.	c #D9A47C",
"X.	c #B69469",
"Y.	c #D69D6F",
"Z.	c #E2B995",
"`.	c #D59C76",
" +	c #E1B99F",
".+	c #E1BAA0",
"++	c #E2BAA1",
"@+	c #E2BBA2",
"#+	c #DFB18B",
"$+	c #EDD3B9",
"%+	c #E2BBA3",
"&+	c #E1B9A0",
"*+	c #E1B89F",
"=+	c #DFB498",
"-+	c #D7A27B",
";+	c #DCAA7E",
">+	c #E7C4A1",
",+	c #E8DACA",
"'+	c #DAA67E",
")+	c #F5E5D4",
"!+	c #DBA97F",
"~+	c #E3BDA5",
"{+	c #E3BEA6",
"]+	c #E3BEA7",
"^+	c #E0B48E",
"/+	c #EED4BA",
"(+	c #E3BFA7",
"_+	c #E2BCA4",
":+	c #E1BAA1",
"<+	c #DFB599",
"[+	c #D7A17C",
"}+	c #E3BA97",
"|+	c #DEB08A",
"1+	c #D7C4AD",
"2+	c #E0B48F",
"3+	c #F7ECE0",
"4+	c #DAA881",
"5+	c #DCAC8F",
"6+	c #DFB59B",
"7+	c #E4C0A9",
"8+	c #E4C1AA",
"9+	c #E5C1AB",
"0+	c #E1B692",
"a+	c #EED5BC",
"b+	c #E5C2AC",
"c+	c #E4BFA8",
"d+	c #E3BDA4",
"e+	c #DFB28B",
"f+	c #EFD8C0",
"g+	c #D8A37A",
"h+	c #DFB18A",
"i+	c #D7A179",
"j+	c #E6C2A2",
"k+	c #E9CAAC",
"l+	c #DBA985",
"m+	c #E5C2AB",
"n+	c #E5C3AD",
"o+	c #E6C4AF",
"p+	c #E6C5B0",
"q+	c #EED6BD",
"r+	c #E6C4AE",
"s+	c #E2BCA3",
"t+	c #DEB297",
"u+	c #DCAC86",
"v+	c #DBAA83",
"w+	c #F8EDE1",
"x+	c #E3BD9A",
"y+	c #DEB092",
"z+	c #E6C5AF",
"A+	c #E7C6B1",
"B+	c #E7C7B3",
"C+	c #E8C8B4",
"D+	c #E3BB99",
"E+	c #EFD7BE",
"F+	c #E8C9B5",
"G+	c #E6C6B1",
"H+	c #E4C0AA",
"I+	c #DDAE8C",
"J+	c #E7C5A5",
"K+	c #D9A784",
"L+	c #F5E6D5",
"M+	c #F3E2CF",
"N+	c #E2B998",
"O+	c #E5C3AE",
"P+	c #E8C9B6",
"Q+	c #E8CBB8",
"R+	c #E9CCB9",
"S+	c #E4BE9C",
"T+	c #E9CCBA",
"U+	c #E9CBB9",
"V+	c #E8CAB7",
"W+	c #E0B79A",
"X+	c #E5C09E",
"Y+	c #DEB08E",
"Z+	c #DEB192",
"`+	c #E3BDA0",
" @	c #EACEBC",
".@	c #EBCFBE",
"+@	c #E5C1A0",
"@@	c #EFD9C0",
"#@	c #EBD0BF",
"$@	c #EACFBE",
"%@	c #EACDBB",
"&@	c #E7C8B4",
"*@	c #E3BB98",
"=@	c #F4E2D0",
"-@	c #F3E2D0",
";@	c #E1B691",
">@	c #DDAF91",
",@	c #E0B595",
"'@	c #EDD4BA",
")@	c #E5C2AA",
"!@	c #E9CBB8",
"~@	c #ECD1C1",
"{@	c #ECD3C2",
"]@	c #F0D9C1",
"^@	c #ECD3C3",
"/@	c #ECD2C2",
"(@	c #EBD1C0",
"_@	c #E9CDBA",
":@	c #E5C2A7",
"<@	c #EED5BB",
"[@	c #E6C3A3",
"}@	c #E3BD9D",
"|@	c #F1DDC6",
"1@	c #F6E8D7",
"2@	c #E8C7A8",
"3@	c #EDD4C5",
"4@	c #EDD6C7",
"5@	c #E8C6A7",
"6@	c #F0DAC3",
"7@	c #EED7C8",
"8@	c #ECD4C4",
"9@	c #E8C9B3",
"0@	c #E2BB9D",
"a@	c #F6E8D8",
"b@	c #F2DEC8",
"c@	c #E9C9AE",
"d@	c #EDD5C6",
"e@	c #EED7C9",
"f@	c #EFD9CC",
"g@	c #E9C9AB",
"h@	c #F1DBC4",
"i@	c #EFDACD",
"j@	c #EFD9CB",
"k@	c #EBCDB1",
"l@	c #F0DBC3",
"m@	c #E6C2A4",
"n@	c #E3BFA8",
"o@	c #E0B59B",
"p@	c #D7A17E",
"q@	c #E3BDA6",
"r@	c #E9CAB4",
"s@	c #ECD2BC",
"t@	c #F0DDD0",
"u@	c #F1DCC5",
"v@	c #F1DED2",
"w@	c #F0DCCF",
"x@	c #EBCFB6",
"y@	c #F2DFC9",
"z@	c #E8CAB6",
"A@	c #E7C6B2",
"B@	c #EBD0BA",
"C@	c #EED4BB",
"D@	c #F3E1CB",
"E@	c #ECD1BE",
"F@	c #ECD2C1",
"G@	c #DEB196",
"H@	c #EFDBCD",
"I@	c #EDD4BD",
"J@	c #F6E7D7",
"K@	c #EDD4BF",
"L@	c #EFDACC",
"M@	c #EED6C7",
"N@	c #EBCFBD",
"O@	c #E0B38D",
"P@	c #F0DBCE",
"Q@	c #EFDACA",
"R@	c #EED4B8",
"S@	c #E9C9A8",
"T@	c #E2BAA2",
"U@	c #D7A07E",
"V@	c #F6E9D9",
"W@	c #F4E2CE",
"X@	c #EED3B4",
"Y@	c #F9F0E5",
"Z@	c #EDD5C3",
"`@	c #EACFBD",
" #	c #E5C1AA",
".#	c #F0DAC2",
"+#	c #F9EFE4",
"@#	c #F0DACA",
"##	c #F2E0D5",
"$#	c #ECD0B4",
"%#	c #EBCEB4",
"&#	c #EBD1C1",
"*#	c #E7C7B2",
"=#	c #E6C3A9",
"-#	c #EBCEB8",
";#	c #F1DDD1",
">#	c #E8C9B0",
",#	c #DEB398",
"'#	c #E8C8A9",
")#	c #F8EEE3",
"!#	c #E8C7AB",
"~#	c #E8C8AA",
"{#	c #EED8CA",
"]#	c #ECD3C4",
"^#	c #E9C9B1",
"/#	c #E5C2A9",
"(#	c #E4BE9F",
"_#	c #F1DCC6",
":#	c #E7C5A6",
"<#	c #EDD5C5",
"[#	c #E6C3A5",
"}#	c #F1DDC7",
"|#	c #DFB392",
"1#	c #E9C8AA",
"2#	c #E4BFA6",
"3#	c #EACEBD",
"4#	c #E6C2A1",
"5#	c #F5E7D7",
"6#	c #E1B694",
"7#	c #D6A17E",
"8#	c #DDAE8E",
"9#	c #E0B696",
"0#	c #E5C09F",
"a#	c #E2BA9F",
"b#	c #EBCDB0",
"c#	c #E1B591",
"d#	c #DFB28F",
"e#	c #E8C8B5",
"f#	c #E3BC99",
"g#	c #DBAA88",
"h#	c #F3E1CE",
"i#	c #DDAE86",
"j#	c #D69F76",
"k#	c #E8C7A9",
"l#	c #DAA886",
"m#	c #DBA988",
"n#	c #F7ECDF",
"o#	c #D8A37C",
"p#	c #8C6B42",
"q#	c #D9A479",
"r#	c #F2DFCB",
"s#	c #DAA77E",
"t#	c #DFB38E",
"u#	c #D7C3AC",
"v#	c #ECD0B0",
"w#	c #D49A73",
"x#	c #DAA57B",
"y#	c #ECD1B3",
"z#	c #D39663",
"A#	c #DDAF87",
"B#	c #D39975",
"C#	c #D39870",
"D#	c #D69E75",
"E#	c #DCAC84",
"F#	c #E9D6C1",
"G#	c #BBA282",
"H#	c #D1BCA3",
"I#	c #D39971",
"J#	c #DBAA81",
"K#	c #D69E74",
"L#	c #A78C6B",
"M#	c #BC9F7B",
"N#	c #D6C0A6",
"O#	c #DCAB83",
"P#	c #DAA87E",
"Q#	c #D8A482",
"R#	c #D49B75",
"S#	c #D59B71",
"T#	c #D9A378",
"U#	c #D9A788",
"V#	c #DAA67C",
"W#	c #D8A175",
"X#	c #D8A177",
"Y#	c #F4E5D4",
"Z#	c #DAA77C",
"`#	c #D79F72",
" $	c #D2BDA4",
".$	c #D49B71",
"+$	c #D59C6D",
"@$	c #DAA77F",
"#$	c #D59A6B",
"$$	c #D49969",
"%$	c #D49767",
"&$	c #D9A36F",
"*$	c #D69C69",
"=$	c #E8DBCB",
"-$	c #CCB293",
";$	c #CDB79B",
"                                                                                                                                ",
"                                                              . +                                                               ",
"                                                            @ # # $                                                             ",
"                                                            % # # # &                                                           ",
"                                                          * = - # ; > ,                                                         ",
"                                                      ' $ ) ! ~ { ] ^ / = (                                                     ",
"                                                    _ : < [ } | 1 } [ [ 2 1 = 3                                                 ",
"                                                ( = 4 5 6 7 8 9 0 8 8 7 6 6 a b $ c                                             ",
"                                            d = 0 e f g h i i j k l i i h m f 8 n o p                                           ",
"                                        q $ r s h l t u v w x y z x x v v A t i g B C D E                                       ",
"                                      F o G H t u x I J K L L M N L L L K J x x u t h O 0 P Q                                   ",
"                                  E D R S t v I K L T U V W X Y Z X ` W  .U T L J x v t h ..: +.                                ",
"                              @.P #.$.t v I K %. .W X &.*.=.-.;.>.-.-.=.*.&.X W U L K x u l ,.n = (                             ",
"                            , : ..h A x K %. .X &.=.'.).!.~.{.].^.{.{.~./.'.-.=.&.X U L J x t h (.0 = 3                         ",
"                        ( = 4 ,.l u I L U X _.-.).~.{.:.<.[.}...|.1.2.[.<.3.{.!.'.-.&.W T K x A h 8 4.) $ '                     ",
"                    3 = 1 5.f l v J L  .6.-.'.~.3.[.1.7.8.9.0.a.b.0.c.9.d.7.}.<.e.!.'.*.X  .L x u h 8 } f.: _                   ",
"            g.h.i.j.) k.} f l v J %.W &.-.!.3.[.1.8.0.l.m.n.n.o.p.q.n.r.s.t.9.d.1.<.{./.-.6. .L I u h 8 } u.v.= w.x.y.          ",
"          + # # # z.A.} 8 h u J %.W *.'.~.B.1.8.0.s.n.C.D.E.F.G.H.F.E.E.D.q.n.l.0.d.2.3.!.-.&. .L x t g 7 I.] J.# # x.          ",
"          K.# # h.L.M.7 g t x L W *.'.{.<.7.9.l.q.D.E.N.O.P.Q.R.S.Q.T.P.U.F.E.C.n.l.9.1.B.~.V.&. .L x t f 6 W.> # # g.          ",
"            X.D Y.1 = Z.`.x L  .&.'.{.<.7.0.m.C.E.N.P. +.+++@+#+$+%+@+++&+*+P.N.=+q.s.9.1.B.~.-.6.U K v -+0 = ;+>+,+            ",
"              x.] } '+b )+!+T 6.-.~.<.7.0.n.D.F.P. +++%+~+{+]+^+/+(+]+~+_+@+:+*+U.<+C.m.9.1.:.!.-.X [+}+= 0 5.[ |+1+            ",
"              x.[ 6 f t 2+3+$+4+/.B.5+0.r.D.6+T..+%+~+(+7+8+9+0+a+b+9+8+c+]+d+@+&+P.F.C.m.9.1.3.).e+)+f+g+l f } h+F             ",
"              x.[ 7 h v K i+j+D k+l+9.m.D.6+T.:+_+]+7+m+n+o+p+Z.q+p+p+r+n+9+c+{+s+&+P.F.t+l.8.u+/+)+/ T J A g 6 h+F             ",
"              x.} f t x L X -.v+|.w+x+y+F.T.:+_+(+8+n+z+A+B+C+D+E+F+C+B+G+o+b+H+{+s+&+P.E.I+0 = J+K+*.W L x l 8 #+F             ",
"              x.6 g u J U &.'.3.1.n L+M+N+.+_+(+9+O+G+B+P+Q+R+S+b T+U+V+F+B+p+n+H+{+%+W+X+D p.Y+2.{.-.X T I t f e+F             ",
"              x.8 i w L W =.!.<.d.l.Z+X+= $+`+8+O+G+C+V+T+ @.@+@@@#@$@%@R+V+&@p+n+7+*@=@-@;@q.l.7.:./.&. .K u g n F             ",
"              x.f t x T X -.{.}.>@n.E.P.,@'@= Z )@C+!@%@.@~@{@J.]@^@/@(@$@_@V+B+:@<@D [@W+U.D.m.9.[.~.=.W L x i n F             ",
"              x.f t J T &.'.3.7.t.t+6+*+%+]+}@|@1@2@%@#@/@3@4@5@6@7@4@8@/@.@9@b.= H.0@{+@+T.E.q.0.1.{.V.X %.x l n F             ",
"              x.g u K  .*./.<.d.s.D.U.&+_+7+n+G+5@a@b@c@d@e@f@g@h@i@j@7@3@k@a@l@m@p+b+n@s+ +o@t+l.7.3.'.&.T J t G F             ",
"              x.h v p@W *.!.[.9.r.E.P.++q@8+r+B+V+r@$+= b s@t@k u@v@w@x@y@a@L.%@z@A@n+7+d+&+U.D.l.d.B./._. .K A G F             ",
"              x.i w L W -.~.[.c.n.E.T.@+{+9+p+C+U+.@/@B@l@= C@; D@|.u@= $+E@F@ @!@B+r+H+~+++P.D.m.8.<./.*. .K v G F             ",
"              x.i x L ` -.{.}.0.G@F.Q.@+]+b+p+F+T+#@^@7@H@I@J@h.# = |@K@L@M@/@N@U+&@o+9+q@++P.E.m.9.[.!.*.W K v O@F             ",
"              x.i x L X -.{.1.0.q.F.Q.%+(+b+p+F+_@#@8@e@P@Q@R@# # h.S@v@i@M@^@.@R+C+o+9+{+T@P.E.n.9.[.!.*.W U@v O@F             ",
"              x.i x L ` -.{.}.0.n.F.Q.@+]+m+p+F+R+#@^@7@k@V@J@W@h.X@Y@$+Z@4@/@`@!@&@o+ #q@++P.E.m.9.[.!.*. .K v O@F             ",
"              x.i v L W =.~.[.9.n.E.T.T@{+9+o+&@!@`@c@.#+#S.@#Z x.##$#V@L+%#&# @V+B+r+H+~+:+P.D.s.d.<./.*. .K u G F             ",
"              x.h v p@W *.!.[.9.m.=+P.++~+H+r+*#=#H.D /+-#L@w@0 x.;#P@Z@$#= f+>#P+G+n+7+_+&+N.C.l.d.B./.&.U J A G F             ",
"              x.g u K  .*./.B.d.l.,#N.&+_+c+b+'#)#l@!#F@3@7@j@~#x.L@{#M@]#^#f+= z /#m+(+%+*+6+q.t.5+3.'.6.T I t G F             ",
"              x.f t J T 6.'.3.5+0.q.F.Q.@+(#_#J@+@V+_@.@F@8@d@:#x.4@<#^@&#`@R+[#}#J@+@~+++P.E.n.>@}.{.-.X L x l n F             ",
"              x.f l x L X -.{.2.9.r.=+|#$+= 1#2#p+&@V+T+`@(@F@[@x./@~@#@3#R+z@B+o+4#5#u@6#N.D.s.8.<.!.=.W L v i n F             ",
"              x.7 h v 7#V *./.<.d.8#[@= S.9#{+H+n+p+&@V+U+%@3#0#x..@ @_@!@P+B+p+b+7+a#L.= b#I+0.5+3.'.&.U J u g n F             ",
"              x.6 m u J T 6.'.{.c#L+l@d#U.&+s+{+H+n+p+*#e#V+!@S+x.U+Q+P+C+A@o+b+7+q@@+*+9#p.D f#g#~.-.X %.x t f e+F             ",
"              x.} f l x L W 4+/+L+*@l.q.E.P.&+s+{+7+b+r+p+A@B+*@x.C+B+A@p+r+9+7+q@@+ +U.E.n.n h#L+i#*. .K v i 7 #+F             ",
"              x.[ 7 h u j#k#D [@l#[.9.s.C.F.P.&+%+q@c+ #b+O+o+4 x.o+r+n+b+8+(+~+@+ +O.E.q.l.d.m#Z.3+k@a J t f 6 h+F             ",
"              x.[ } ,.O@n#N '+*./.3.1.9.m.C.F.P. +@+_+{+n@7+8+;@x.9+8+7+(+q@s+++*+O.E.t+l.9.[.{.'.o#k#D 0#H 8 } h+F             ",
"            p#x.] q#r r#s#J T X -.!.B.1.9.m.t+E.U.Q.&+@+_+~+q@t#x.{+~+d+s+++&+T.N.E.q.l.9.}.3./.*.W L g+H.: e+[ |+u#            ",
"            P h.v#D #+w#l w K U 6.-.~.B.1.9.s.q.D.F.O.T. +.+++h+x.T@++&+ +T.U.F.D.n.l.9.}.3./.=.X T J u h x#: y#o D @.          ",
"          + # # # z#[ 6 f t x L  .&.V.~.B.1.8.t.r.t+=+F.N.U.P.A#x.P.P.U.o@E.D.q.m.0.d.2.3./.-.X U K w l f B#C#p.# # x.          ",
"          . # # D L.D#} 7 g t x L  .&.-.!.3.[.7.9.l.m.q.C.D.E.E#x.E.=+D.t+q.m.0.9.7.[.{./.-.X U K x t f 6 [ o.o # # F#          ",
"            . G#  H#= S+I#8 h u I L  .6.-./.{.B.2.7.9.0.l.s.m.J#x.n.m.s.l.0.8.7.[.:.~.'.*.X U 7#x t g 7 K#) $ L#M#N#            ",
"                      _ : O#8 h u x L U X *.'./.{.B.[.1.7.d.9.P#x.9.9.d.7.1.[.:.{./.-.&.Q#T K x t g (.J+= E                     ",
"                        ' $ b O h t x K T W 6.=.'./.~.e.:.<.[.x#x.[.[.B.3.{.~./.-.*.X  .L J x t R#n = (                         ",
"                            3 = 0 S#t v J L U W 6.*.-.'.)./.!.T#x.!.!./.U#'.=.&.X W T p@I v l V#: +.                            ",
"                                ( = G `.u x J L T  .X 6.&.*.*.W#x.*.*.*.&.X W  .T p@J x t X#0 P Q                               ",
"                                    +.Y#Z#l u x J K L T U  .W `#x.W W  .T T L K I x A `.R D  $                                  ",
"                                      Q P 0 $.l A v x I J K p@M x.L U@K J x x u t l G Y#p                                       ",
"                                          E D C .$h l t A v v +$x.v v u A t l h @$b $ c                                         ",
"                                              p o n 8 f m h h #$x.h h g f f (.0 = 3                                             ",
"                                                c $ b a 6 6 6 $$x.6 6 6 5 4 = (                                                 ",
"                                                    3 = 1 M.[ %$x.[ [ o.: ,                                                     ",
"                                                        ( = z.&$D *$p.$ @.                                                      ",
"                                                            =$# # # -$                                                          ",
"                                                            Q # # h.                                                            ",
"                                                              F#x.;$                                                            ",
"                                                                                                                                "};
